<?xml version="1.0" encoding="UTF-8"?>
<svg xmlns="http://www.w3.org/2000/svg" xmlns:xlink="http://www.w3.org/1999/xlink" width="200px" height="225px" viewBox="0 0 200 225" version="1.1">
<defs>
<clipPath id="clip1">
  <path d="M 40 120.785156 L 160 120.785156 L 160 139.472656 L 40 139.472656 Z M 40 120.785156 "/>
</clipPath>
<clipPath id="clip2">
  <path d="M 49 143.882812 L 151 143.882812 L 151 154.933594 L 49 154.933594 Z M 49 143.882812 "/>
</clipPath>
<clipPath id="clip3">
  <path d="M 62.921875 70.066406 L 137.082031 70.066406 L 137.082031 116.375 L 62.921875 116.375 Z M 62.921875 70.066406 "/>
</clipPath>
</defs>
<g id="surface1">
<path style=" stroke:none;fill-rule:nonzero;fill:rgb(65.098039%,9.019608%,7.45098%);fill-opacity:1;" d="M 13.101562 142.011719 L 15.429688 144.921875 L 14.265625 141.140625 C 13.972656 139.390625 11.9375 141.429688 13.101562 142.011719 M 15.71875 140.265625 C 16.59375 141.722656 17.46875 143.175781 17.46875 144.632812 C 17.46875 146.671875 19.214844 147.542969 20.667969 148.125 C 18.632812 145.796875 17.46875 139.390625 15.71875 140.265625 M 127.511719 16.832031 C 132.460938 16.832031 137.117188 16.25 142.359375 17.414062 C 155.167969 20.613281 165.9375 27.019531 173.214844 36.042969 L 193.59375 68.648438 C 194.46875 76.800781 196.214844 85.824219 195.925781 95.722656 C 197.960938 95.722656 197.671875 92.8125 200 92.230469 C 197.671875 98.054688 196.507812 105.332031 195.925781 113.773438 C 194.46875 109.117188 195.925781 102.128906 196.214844 98.34375 C 194.175781 101.546875 193.011719 99.21875 193.011719 97.761719 C 193.304688 95.433594 192.140625 95.722656 191.265625 94.851562 C 188.0625 91.941406 186.027344 88.738281 183.695312 83.789062 C 185.152344 80.003906 185.445312 74.472656 180.785156 71.5625 C 179.332031 70.6875 177.582031 69.230469 176.710938 66.902344 C 175.546875 63.699219 173.507812 59.917969 174.089844 54.96875 C 174.382812 53.511719 169.722656 58.167969 167.101562 56.132812 C 155.75 48.269531 144.394531 39.246094 130.714844 31.675781 C 123.433594 31.675781 118.195312 29.058594 115.574219 25.855469 C 113.246094 22.945312 114.992188 19.160156 118.484375 18.867188 C 120.523438 18.867188 122.851562 18.285156 124.601562 19.449219 C 124.890625 18.285156 126.054688 16.832031 127.511719 16.832031 M 98.691406 10.132812 L 99.273438 10.425781 C 102.183594 11.007812 103.640625 15.082031 106.839844 13.628906 C 106.839844 15.664062 107.132812 17.703125 106.550781 19.160156 C 105.675781 21.488281 103.058594 21.488281 101.019531 21.488281 C 81.515625 20.324219 70.160156 28.476562 58.222656 35.460938 C 55.023438 37.5 51.527344 38.957031 48.910156 41.574219 C 36.390625 53.21875 22.707031 63.992188 19.503906 85.535156 L 16.886719 109.40625 C 16.59375 112.027344 13.683594 114.648438 14.265625 117.847656 L 16.304688 132.113281 C 14.265625 130.078125 13.101562 132.695312 13.683594 133.859375 C 13.972656 134.734375 15.136719 137.644531 16.886719 135.023438 C 19.214844 139.390625 21.542969 147.835938 24.746094 151.621094 C 34.644531 163.265625 47.453125 173.746094 57.933594 184.226562 C 60.554688 183.640625 62.589844 183.640625 63.171875 181.894531 C 64.046875 183.640625 62.300781 185.390625 60.84375 185.679688 C 65.503906 188.589844 70.742188 191.210938 77.730469 191.792969 C 86.753906 192.375 95.195312 193.832031 103.058594 195.871094 C 107.132812 194.707031 111.207031 194.121094 115.574219 193.832031 C 117.03125 193.832031 117.902344 191.503906 119.652344 190.921875 L 119.941406 188.007812 C 121.6875 190.628906 121.398438 187.136719 120.234375 185.390625 C 122.269531 187.136719 122.851562 188.589844 123.726562 189.757812 C 123.726562 188.882812 126.054688 185.679688 126.054688 189.464844 L 126.636719 185.679688 C 127.511719 185.097656 127.800781 188.882812 128.675781 186.261719 C 129.546875 183.640625 131.296875 185.679688 133.042969 184.808594 C 132.460938 185.972656 132.75 188.300781 134.789062 186.84375 L 137.117188 184.808594 C 138.574219 188.300781 140.902344 186.84375 142.066406 186.261719 C 154.875 178.109375 167.683594 168.503906 179.914062 158.898438 L 179.621094 162.683594 L 181.078125 158.023438 C 182.53125 159.480469 183.695312 158.316406 184.28125 157.441406 C 186.027344 154.53125 188.355469 151.621094 192.140625 149 C 187.480469 161.515625 181.949219 171.414062 174.964844 179.566406 L 172.050781 183.058594 C 172.050781 185.097656 171.46875 187.71875 169.140625 188.007812 C 167.976562 188.300781 165.648438 187.425781 163.902344 189.171875 C 163.027344 190.339844 165.9375 192.667969 163.609375 190.921875 C 161.570312 189.464844 159.535156 190.921875 157.207031 191.503906 C 155.457031 192.085938 158.371094 193.832031 158.953125 194.996094 C 159.535156 196.160156 160.117188 197.324219 159.824219 198.78125 L 156.621094 195.289062 C 152.839844 197.324219 150.507812 201.109375 147.308594 204.019531 C 145.851562 205.183594 146.433594 207.222656 146.433594 208.96875 C 144.394531 208.96875 142.066406 208.386719 140.902344 209.550781 C 140.027344 210.714844 140.320312 212.464844 140.320312 214.210938 C 137.410156 213.917969 137.117188 209.550781 134.496094 210.425781 C 131.878906 211.007812 128.964844 211.300781 126.636719 212.753906 C 128.382812 216.246094 123.726562 214.210938 124.308594 214.792969 C 119.941406 212.171875 116.15625 210.132812 111.5 211.882812 C 101.601562 208.679688 89.375 210.132812 80.347656 211.300781 C 80.347656 209.84375 80.640625 208.386719 80.058594 208.097656 C 79.476562 209.550781 77.730469 208.96875 78.019531 208.96875 C 72.488281 205.183594 66.957031 202.855469 61.136719 199.652344 C 55.894531 200.238281 50.945312 197.617188 49.492188 196.160156 C 45.414062 192.375 40.757812 194.414062 36.972656 193.539062 C 28.820312 191.503906 25.910156 183.058594 25.035156 177.238281 C 24.453125 174.328125 22.125 173.164062 21.25 173.453125 C 17.46875 161.226562 11.644531 150.164062 6.988281 138.808594 C 5.824219 135.898438 6.113281 132.988281 6.113281 129.785156 C 7.570312 130.367188 9.023438 130.078125 8.734375 128.039062 C 7.277344 118.429688 3.785156 111.152344 0 104.167969 C 2.039062 94.269531 2.328125 82.625 6.988281 73.890625 C 11.0625 66.03125 18.632812 61.953125 23.871094 55.257812 C 25.617188 52.929688 25.617188 49.726562 27.367188 47.6875 C 33.1875 41.867188 39.011719 35.753906 45.414062 30.511719 C 48.324219 28.183594 51.820312 30.511719 56.1875 29.640625 C 57.640625 24.398438 63.464844 19.742188 68.996094 21.195312 C 71.324219 21.78125 75.984375 15.664062 77.4375 15.082031 C 79.765625 14.210938 78.601562 17.414062 78.601562 19.449219 C 84.132812 15.082031 91.703125 12.753906 98.691406 10.132812 "/>
<g clip-path="url(#clip1)" clip-rule="nonzero">
<path style=" stroke:none;fill-rule:nonzero;fill:rgb(65.098039%,9.019608%,7.45098%);fill-opacity:1;" d="M 54.320312 139.472656 L 51.117188 139.472656 L 46.242188 132.597656 L 42.707031 132.597656 L 42.707031 139.472656 L 40.003906 139.472656 L 40.003906 120.785156 L 44.976562 120.785156 C 46.109375 120.785156 47.144531 120.894531 48.078125 121.117188 C 49.011719 121.339844 49.8125 121.695312 50.480469 122.1875 C 51.148438 122.675781 51.671875 123.292969 52.050781 124.035156 C 52.429688 124.78125 52.617188 125.667969 52.617188 126.691406 C 52.617188 128.25 52.273438 129.449219 51.582031 130.292969 C 50.894531 131.140625 50.015625 131.753906 48.945312 132.128906 Z M 45.042969 122.851562 L 42.707031 122.851562 L 42.707031 130.527344 L 44.910156 130.527344 C 46.578125 130.527344 47.820312 130.234375 48.632812 129.640625 C 49.441406 129.054688 49.847656 128.070312 49.847656 126.691406 C 49.847656 125.378906 49.441406 124.410156 48.632812 123.789062 C 47.820312 123.164062 46.621094 122.851562 45.042969 122.851562 Z M 72.40625 139.472656 L 69.4375 139.472656 L 67.867188 134.964844 L 59.523438 134.964844 L 57.921875 139.472656 L 55.152344 139.472656 L 62.160156 120.785156 L 65.429688 120.785156 Z M 63.761719 122.988281 L 60.257812 132.832031 L 67.132812 132.832031 Z M 87.222656 120.785156 L 89.992188 120.785156 L 89.992188 139.472656 L 87.222656 139.472656 L 87.222656 131.097656 L 78.480469 131.097656 L 78.480469 139.472656 L 75.742188 139.472656 L 75.742188 120.785156 L 78.480469 120.785156 L 78.480469 128.859375 L 87.222656 128.859375 Z M 106.570312 139.472656 L 103.699219 139.472656 L 98.5625 124.789062 L 98.5625 139.472656 L 95.992188 139.472656 L 95.992188 120.785156 L 99.828125 120.785156 L 105.203125 136.402344 L 110.140625 120.785156 L 113.980469 120.785156 L 113.980469 139.472656 L 111.308594 139.472656 L 111.308594 124.789062 Z M 134.570312 139.472656 L 131.597656 139.472656 L 130.03125 134.964844 L 121.6875 134.964844 L 120.085938 139.472656 L 117.316406 139.472656 L 124.324219 120.785156 L 127.59375 120.785156 Z M 125.925781 122.988281 L 122.421875 132.832031 L 129.296875 132.832031 Z M 148.75 120.785156 L 151.253906 120.785156 L 151.253906 139.472656 L 147.382812 139.472656 L 140.476562 123.855469 L 140.476562 139.472656 L 137.90625 139.472656 L 137.90625 120.785156 L 141.84375 120.785156 L 148.75 136.234375 Z M 157.261719 120.785156 L 159.996094 120.785156 L 159.996094 139.472656 L 157.261719 139.472656 Z M 157.261719 120.785156 "/>
</g>
<g clip-path="url(#clip2)" clip-rule="nonzero">
<path style=" stroke:none;fill-rule:nonzero;fill:rgb(65.098039%,9.019608%,7.45098%);fill-opacity:1;" d="M 54.882812 150.664062 C 54.925781 150.796875 54.96875 150.925781 55.007812 151.058594 C 55.046875 151.191406 55.082031 151.324219 55.117188 151.460938 C 55.246094 151.179688 55.382812 150.914062 55.53125 150.671875 L 59.578125 145.039062 C 59.667969 144.898438 59.757812 144.804688 59.84375 144.769531 C 59.929688 144.730469 60.054688 144.710938 60.21875 144.710938 L 61.6875 144.710938 L 60.445312 154.820312 L 58.746094 154.820312 L 59.59375 148.433594 C 59.609375 148.289062 59.632812 148.121094 59.667969 147.9375 C 59.699219 147.75 59.734375 147.5625 59.777344 147.375 L 55.761719 153.199219 C 55.597656 153.472656 55.355469 153.609375 55.039062 153.609375 L 54.773438 153.609375 C 54.625 153.609375 54.492188 153.574219 54.382812 153.507812 C 54.273438 153.4375 54.191406 153.335938 54.136719 153.199219 L 51.570312 147.414062 C 51.570312 147.59375 51.566406 147.765625 51.558594 147.9375 C 51.550781 148.113281 51.542969 148.265625 51.53125 148.402344 L 50.703125 154.820312 L 49.003906 154.820312 L 50.238281 144.710938 L 51.6875 144.710938 C 51.769531 144.710938 51.84375 144.714844 51.902344 144.722656 C 51.960938 144.730469 52.011719 144.746094 52.058594 144.769531 C 52.101562 144.792969 52.144531 144.820312 52.1875 144.859375 C 52.226562 144.898438 52.269531 144.949219 52.316406 145.015625 Z M 65.707031 153.457031 C 66.042969 153.457031 66.347656 153.375 66.617188 153.203125 C 66.886719 153.039062 67.117188 152.8125 67.304688 152.53125 C 67.496094 152.25 67.640625 151.921875 67.746094 151.550781 C 67.847656 151.175781 67.898438 150.785156 67.898438 150.375 C 67.898438 149.761719 67.777344 149.316406 67.542969 149.035156 C 67.308594 148.757812 66.949219 148.617188 66.464844 148.617188 C 66.132812 148.617188 65.828125 148.699219 65.554688 148.863281 C 65.285156 149.03125 65.054688 149.25 64.863281 149.527344 C 64.671875 149.808594 64.527344 150.136719 64.425781 150.511719 C 64.324219 150.886719 64.273438 151.285156 64.273438 151.699219 C 64.273438 152.304688 64.394531 152.746094 64.628906 153.03125 C 64.867188 153.316406 65.226562 153.457031 65.707031 153.457031 Z M 65.550781 154.933594 C 65.089844 154.933594 64.664062 154.863281 64.269531 154.71875 C 63.875 154.578125 63.535156 154.371094 63.25 154.097656 C 62.96875 153.820312 62.746094 153.484375 62.585938 153.082031 C 62.421875 152.683594 62.339844 152.222656 62.339844 151.707031 C 62.339844 151.050781 62.453125 150.449219 62.679688 149.890625 C 62.90625 149.335938 63.210938 148.855469 63.597656 148.445312 C 63.988281 148.035156 64.441406 147.71875 64.957031 147.488281 C 65.476562 147.257812 66.027344 147.140625 66.617188 147.140625 C 67.078125 147.140625 67.507812 147.210938 67.898438 147.351562 C 68.289062 147.496094 68.625 147.703125 68.914062 147.976562 C 69.199219 148.25 69.425781 148.589844 69.585938 148.988281 C 69.75 149.390625 69.828125 149.851562 69.828125 150.367188 C 69.828125 151.011719 69.71875 151.613281 69.492188 152.167969 C 69.269531 152.722656 68.964844 153.207031 68.578125 153.617188 C 68.1875 154.027344 67.734375 154.351562 67.214844 154.582031 C 66.695312 154.816406 66.140625 154.933594 65.550781 154.933594 Z M 72.609375 154.820312 L 70.679688 154.820312 L 71.996094 143.882812 L 73.929688 143.882812 L 73.367188 148.496094 C 73.738281 148.035156 74.140625 147.699219 74.574219 147.476562 C 75.007812 147.257812 75.453125 147.148438 75.910156 147.148438 C 76.234375 147.148438 76.527344 147.210938 76.789062 147.335938 C 77.050781 147.464844 77.265625 147.648438 77.4375 147.890625 C 77.605469 148.136719 77.722656 148.4375 77.792969 148.789062 C 77.859375 149.144531 77.867188 149.550781 77.8125 150.007812 L 77.242188 154.820312 L 75.316406 154.820312 L 75.878906 150.007812 C 75.941406 149.542969 75.914062 149.207031 75.804688 149.007812 C 75.691406 148.808594 75.484375 148.710938 75.179688 148.710938 C 74.992188 148.710938 74.796875 148.761719 74.597656 148.863281 C 74.398438 148.96875 74.203125 149.117188 74.015625 149.304688 C 73.828125 149.496094 73.652344 149.726562 73.488281 149.992188 C 73.328125 150.257812 73.191406 150.554688 73.078125 150.886719 Z M 86.175781 147.492188 L 85.277344 154.820312 L 84.25 154.820312 C 84.003906 154.820312 83.832031 154.757812 83.742188 154.632812 C 83.648438 154.507812 83.609375 154.355469 83.617188 154.179688 L 83.679688 153.21875 C 83.324219 153.75 82.921875 154.167969 82.464844 154.472656 C 82.011719 154.78125 81.511719 154.933594 80.960938 154.933594 C 80.652344 154.933594 80.363281 154.878906 80.089844 154.765625 C 79.820312 154.65625 79.582031 154.484375 79.382812 154.253906 C 79.183594 154.027344 79.027344 153.742188 78.910156 153.402344 C 78.796875 153.058594 78.738281 152.65625 78.738281 152.195312 C 78.738281 151.742188 78.800781 151.304688 78.921875 150.882812 C 79.039062 150.457031 79.210938 150.058594 79.433594 149.683594 C 79.65625 149.304688 79.925781 148.964844 80.238281 148.652344 C 80.554688 148.34375 80.90625 148.078125 81.296875 147.855469 C 81.6875 147.632812 82.109375 147.460938 82.566406 147.335938 C 83.019531 147.210938 83.496094 147.148438 84 147.148438 C 84.363281 147.148438 84.730469 147.171875 85.097656 147.222656 C 85.460938 147.273438 85.820312 147.363281 86.175781 147.492188 Z M 81.707031 153.359375 C 81.9375 153.359375 82.160156 153.285156 82.375 153.136719 C 82.589844 152.992188 82.792969 152.789062 82.984375 152.53125 C 83.175781 152.277344 83.351562 151.976562 83.507812 151.632812 C 83.667969 151.289062 83.804688 150.925781 83.914062 150.53125 L 84.15625 148.527344 C 84.085938 148.519531 84.015625 148.515625 83.945312 148.511719 C 83.875 148.511719 83.808594 148.511719 83.742188 148.511719 C 83.304688 148.511719 82.898438 148.601562 82.523438 148.78125 C 82.148438 148.960938 81.824219 149.203125 81.546875 149.507812 C 81.273438 149.8125 81.058594 150.164062 80.898438 150.566406 C 80.746094 150.972656 80.667969 151.402344 80.667969 151.851562 C 80.667969 152.382812 80.757812 152.769531 80.945312 153.003906 C 81.128906 153.238281 81.382812 153.359375 81.707031 153.359375 Z M 89 154.820312 L 87.105469 154.820312 L 88.019531 147.253906 L 89 147.253906 C 89.203125 147.253906 89.363281 147.304688 89.480469 147.402344 C 89.597656 147.5 89.652344 147.660156 89.644531 147.878906 L 89.609375 148.679688 C 89.972656 148.160156 90.371094 147.777344 90.796875 147.523438 C 91.222656 147.273438 91.671875 147.148438 92.140625 147.148438 C 92.644531 147.148438 93.042969 147.304688 93.328125 147.613281 C 93.617188 147.925781 93.785156 148.378906 93.832031 148.96875 C 94.207031 148.34375 94.625 147.882812 95.089844 147.589844 C 95.550781 147.296875 96.054688 147.148438 96.601562 147.148438 C 96.949219 147.148438 97.25 147.210938 97.507812 147.335938 C 97.765625 147.464844 97.980469 147.648438 98.144531 147.890625 C 98.308594 148.136719 98.421875 148.4375 98.480469 148.789062 C 98.539062 149.144531 98.539062 149.550781 98.484375 150.007812 L 97.917969 154.820312 L 96.015625 154.820312 L 96.582031 150.007812 C 96.640625 149.542969 96.621094 149.210938 96.523438 149.015625 C 96.425781 148.820312 96.222656 148.722656 95.917969 148.722656 C 95.71875 148.722656 95.523438 148.773438 95.328125 148.871094 C 95.132812 148.972656 94.949219 149.113281 94.777344 149.300781 C 94.605469 149.488281 94.445312 149.71875 94.296875 149.992188 C 94.148438 150.261719 94.023438 150.570312 93.917969 150.90625 L 93.917969 150.917969 L 93.46875 154.820312 L 91.554688 154.820312 L 92.121094 150.007812 C 92.179688 149.546875 92.164062 149.21875 92.074219 149.019531 C 91.980469 148.820312 91.785156 148.722656 91.480469 148.722656 C 91.265625 148.722656 91.058594 148.777344 90.859375 148.882812 C 90.660156 148.988281 90.472656 149.144531 90.300781 149.34375 C 90.128906 149.542969 89.96875 149.785156 89.824219 150.066406 C 89.675781 150.347656 89.546875 150.664062 89.441406 151.011719 Z M 106.550781 149.082031 C 106.550781 149.414062 106.476562 149.71875 106.328125 149.996094 C 106.175781 150.273438 105.910156 150.523438 105.527344 150.746094 C 105.148438 150.964844 104.628906 151.15625 103.972656 151.3125 C 103.316406 151.46875 102.484375 151.59375 101.472656 151.683594 C 101.472656 152.28125 101.613281 152.726562 101.898438 153.011719 C 102.175781 153.296875 102.605469 153.441406 103.183594 153.441406 C 103.550781 153.441406 103.851562 153.402344 104.089844 153.320312 C 104.324219 153.238281 104.523438 153.148438 104.695312 153.050781 C 104.859375 152.953125 105.007812 152.863281 105.140625 152.78125 C 105.269531 152.699219 105.410156 152.660156 105.570312 152.660156 C 105.707031 152.660156 105.824219 152.714844 105.917969 152.824219 L 106.421875 153.421875 C 106.136719 153.683594 105.859375 153.910156 105.589844 154.097656 C 105.324219 154.289062 105.046875 154.449219 104.757812 154.574219 C 104.472656 154.695312 104.167969 154.789062 103.851562 154.847656 C 103.535156 154.90625 103.191406 154.933594 102.820312 154.933594 C 102.332031 154.933594 101.890625 154.859375 101.492188 154.703125 C 101.09375 154.550781 100.753906 154.335938 100.472656 154.054688 C 100.191406 153.773438 99.972656 153.4375 99.816406 153.042969 C 99.664062 152.648438 99.585938 152.210938 99.585938 151.722656 C 99.585938 151.128906 99.691406 150.558594 99.894531 150.007812 C 100.097656 149.457031 100.390625 148.96875 100.769531 148.546875 C 101.148438 148.128906 101.605469 147.789062 102.140625 147.539062 C 102.675781 147.285156 103.273438 147.15625 103.9375 147.15625 C 104.375 147.15625 104.757812 147.214844 105.085938 147.324219 C 105.414062 147.441406 105.683594 147.589844 105.898438 147.773438 C 106.117188 147.960938 106.277344 148.167969 106.386719 148.394531 C 106.496094 148.625 106.550781 148.851562 106.550781 149.082031 Z M 103.847656 148.496094 C 103.574219 148.496094 103.320312 148.539062 103.082031 148.632812 C 102.847656 148.730469 102.636719 148.863281 102.449219 149.03125 C 102.257812 149.199219 102.097656 149.40625 101.960938 149.648438 C 101.820312 149.890625 101.714844 150.152344 101.632812 150.441406 C 102.3125 150.363281 102.863281 150.273438 103.277344 150.179688 C 103.695312 150.085938 104.015625 149.984375 104.246094 149.875 C 104.472656 149.765625 104.625 149.652344 104.699219 149.527344 C 104.777344 149.402344 104.816406 149.269531 104.816406 149.128906 C 104.816406 149.050781 104.796875 148.976562 104.761719 148.902344 C 104.726562 148.828125 104.667969 148.761719 104.589844 148.699219 C 104.511719 148.640625 104.410156 148.589844 104.289062 148.554688 C 104.167969 148.515625 104.019531 148.496094 103.847656 148.496094 Z M 113.6875 154.820312 L 112.660156 154.820312 C 112.417969 154.820312 112.25 154.757812 112.160156 154.632812 C 112.070312 154.507812 112.027344 154.355469 112.039062 154.179688 L 112.082031 153.21875 C 111.710938 153.75 111.296875 154.167969 110.832031 154.472656 C 110.367188 154.78125 109.871094 154.933594 109.351562 154.933594 C 109.019531 154.933594 108.722656 154.878906 108.457031 154.761719 C 108.191406 154.648438 107.960938 154.476562 107.773438 154.238281 C 107.585938 154.007812 107.441406 153.710938 107.335938 153.351562 C 107.234375 152.988281 107.179688 152.566406 107.179688 152.078125 C 107.179688 151.648438 107.226562 151.226562 107.320312 150.816406 C 107.410156 150.40625 107.539062 150.015625 107.703125 149.652344 C 107.867188 149.289062 108.066406 148.953125 108.300781 148.644531 C 108.535156 148.335938 108.789062 148.074219 109.066406 147.851562 C 109.347656 147.632812 109.648438 147.460938 109.972656 147.335938 C 110.292969 147.210938 110.628906 147.148438 110.972656 147.148438 C 111.320312 147.148438 111.636719 147.207031 111.921875 147.324219 C 112.199219 147.445312 112.449219 147.609375 112.660156 147.816406 L 113.148438 143.882812 L 115.042969 143.882812 Z M 110.101562 153.421875 C 110.304688 153.421875 110.511719 153.351562 110.722656 153.214844 C 110.933594 153.078125 111.136719 152.886719 111.332031 152.648438 C 111.527344 152.40625 111.710938 152.125 111.875 151.800781 C 112.039062 151.480469 112.179688 151.132812 112.296875 150.765625 L 112.507812 149.058594 C 112.335938 148.894531 112.140625 148.78125 111.925781 148.710938 C 111.710938 148.644531 111.496094 148.609375 111.285156 148.609375 C 110.953125 148.609375 110.65625 148.707031 110.390625 148.898438 C 110.125 149.089844 109.894531 149.339844 109.699219 149.652344 C 109.507812 149.960938 109.359375 150.3125 109.253906 150.703125 C 109.152344 151.09375 109.097656 151.488281 109.097656 151.890625 C 109.097656 152.414062 109.1875 152.796875 109.367188 153.046875 C 109.542969 153.296875 109.789062 153.421875 110.101562 153.421875 Z M 122.273438 150.890625 L 121.550781 150.890625 L 121.0625 154.820312 L 119.152344 154.820312 L 120.382812 144.710938 L 123.382812 144.710938 C 123.992188 144.710938 124.515625 144.777344 124.953125 144.902344 C 125.386719 145.03125 125.746094 145.207031 126.023438 145.433594 C 126.304688 145.65625 126.511719 145.925781 126.640625 146.238281 C 126.773438 146.550781 126.839844 146.890625 126.839844 147.261719 C 126.839844 147.648438 126.785156 148.011719 126.671875 148.351562 C 126.558594 148.691406 126.398438 149 126.1875 149.28125 C 125.980469 149.5625 125.722656 149.808594 125.414062 150.023438 C 125.113281 150.230469 124.765625 150.398438 124.378906 150.519531 C 124.609375 150.652344 124.789062 150.847656 124.921875 151.105469 L 126.785156 154.820312 L 125.058594 154.820312 C 124.894531 154.820312 124.757812 154.785156 124.644531 154.71875 C 124.535156 154.648438 124.453125 154.554688 124.394531 154.4375 L 122.886719 151.242188 C 122.832031 151.121094 122.761719 151.03125 122.671875 150.976562 C 122.582031 150.917969 122.449219 150.890625 122.273438 150.890625 Z M 123.207031 146.1875 L 122.125 146.1875 L 121.71875 149.527344 L 122.78125 149.527344 C 123.152344 149.527344 123.472656 149.476562 123.742188 149.375 C 124.011719 149.269531 124.230469 149.128906 124.402344 148.953125 C 124.574219 148.773438 124.703125 148.5625 124.789062 148.324219 C 124.871094 148.082031 124.914062 147.824219 124.914062 147.550781 C 124.914062 147.121094 124.777344 146.785156 124.5 146.546875 C 124.222656 146.308594 123.792969 146.1875 123.207031 146.1875 Z M 134.730469 149.082031 C 134.730469 149.414062 134.65625 149.71875 134.507812 149.996094 C 134.355469 150.273438 134.09375 150.523438 133.710938 150.746094 C 133.332031 150.964844 132.8125 151.15625 132.15625 151.3125 C 131.496094 151.46875 130.664062 151.59375 129.65625 151.683594 C 129.65625 152.28125 129.796875 152.726562 130.078125 153.011719 C 130.359375 153.296875 130.789062 153.441406 131.367188 153.441406 C 131.734375 153.441406 132.035156 153.402344 132.269531 153.320312 C 132.503906 153.238281 132.707031 153.148438 132.871094 153.050781 C 133.042969 152.953125 133.191406 152.863281 133.320312 152.78125 C 133.449219 152.699219 133.589844 152.660156 133.75 152.660156 C 133.886719 152.660156 134.003906 152.714844 134.097656 152.824219 L 134.601562 153.421875 C 134.320312 153.683594 134.042969 153.910156 133.769531 154.097656 C 133.503906 154.289062 133.226562 154.449219 132.9375 154.574219 C 132.652344 154.695312 132.351562 154.789062 132.035156 154.847656 C 131.714844 154.90625 131.371094 154.933594 131.003906 154.933594 C 130.515625 154.933594 130.070312 154.859375 129.675781 154.703125 C 129.273438 154.550781 128.9375 154.335938 128.65625 154.054688 C 128.371094 153.773438 128.152344 153.4375 128 153.042969 C 127.84375 152.648438 127.765625 152.210938 127.765625 151.722656 C 127.765625 151.128906 127.871094 150.558594 128.074219 150.007812 C 128.28125 149.457031 128.574219 148.96875 128.949219 148.546875 C 129.328125 148.128906 129.785156 147.789062 130.320312 147.539062 C 130.855469 147.285156 131.457031 147.15625 132.121094 147.15625 C 132.558594 147.15625 132.941406 147.214844 133.265625 147.324219 C 133.59375 147.441406 133.867188 147.589844 134.078125 147.773438 C 134.296875 147.960938 134.457031 148.167969 134.570312 148.394531 C 134.675781 148.625 134.730469 148.851562 134.730469 149.082031 Z M 132.027344 148.496094 C 131.757812 148.496094 131.5 148.539062 131.265625 148.632812 C 131.027344 148.730469 130.816406 148.863281 130.628906 149.03125 C 130.441406 149.199219 130.277344 149.40625 130.140625 149.648438 C 130.003906 149.890625 129.894531 150.152344 129.816406 150.441406 C 130.496094 150.363281 131.042969 150.273438 131.457031 150.179688 C 131.875 150.085938 132.195312 149.984375 132.425781 149.875 C 132.652344 149.765625 132.804688 149.652344 132.882812 149.527344 C 132.957031 149.402344 132.996094 149.269531 132.996094 149.128906 C 132.996094 149.050781 132.976562 148.976562 132.941406 148.902344 C 132.90625 148.828125 132.847656 148.761719 132.769531 148.699219 C 132.691406 148.640625 132.59375 148.589844 132.472656 148.554688 C 132.347656 148.515625 132.199219 148.496094 132.027344 148.496094 Z M 141.871094 154.820312 L 140.839844 154.820312 C 140.597656 154.820312 140.429688 154.757812 140.339844 154.632812 C 140.25 154.507812 140.207031 154.355469 140.21875 154.179688 L 140.265625 153.21875 C 139.894531 153.75 139.476562 154.167969 139.011719 154.472656 C 138.546875 154.78125 138.054688 154.933594 137.53125 154.933594 C 137.203125 154.933594 136.902344 154.878906 136.636719 154.761719 C 136.371094 154.648438 136.144531 154.476562 135.957031 154.238281 C 135.769531 154.007812 135.621094 153.710938 135.515625 153.351562 C 135.414062 152.988281 135.359375 152.566406 135.359375 152.078125 C 135.359375 151.648438 135.40625 151.226562 135.496094 150.816406 C 135.589844 150.40625 135.71875 150.015625 135.882812 149.652344 C 136.046875 149.289062 136.246094 148.953125 136.480469 148.644531 C 136.714844 148.335938 136.972656 148.074219 137.25 147.851562 C 137.527344 147.632812 137.828125 147.460938 138.152344 147.335938 C 138.472656 147.210938 138.808594 147.148438 139.152344 147.148438 C 139.503906 147.148438 139.820312 147.207031 140.097656 147.324219 C 140.382812 147.445312 140.628906 147.609375 140.839844 147.816406 L 141.332031 143.882812 L 143.222656 143.882812 Z M 138.285156 153.421875 C 138.488281 153.421875 138.695312 153.351562 138.90625 153.214844 C 139.117188 153.078125 139.316406 152.886719 139.511719 152.648438 C 139.707031 152.40625 139.890625 152.125 140.054688 151.800781 C 140.21875 151.480469 140.359375 151.132812 140.476562 150.765625 L 140.6875 149.058594 C 140.515625 148.894531 140.324219 148.78125 140.109375 148.710938 C 139.894531 148.644531 139.675781 148.609375 139.464844 148.609375 C 139.136719 148.609375 138.839844 148.707031 138.570312 148.898438 C 138.304688 149.089844 138.074219 149.339844 137.882812 149.652344 C 137.691406 149.960938 137.542969 150.3125 137.4375 150.703125 C 137.332031 151.09375 137.28125 151.488281 137.28125 151.890625 C 137.28125 152.414062 137.371094 152.796875 137.546875 153.046875 C 137.726562 153.296875 137.972656 153.421875 138.285156 153.421875 Z M 150.996094 147.492188 L 150.097656 154.820312 L 149.070312 154.820312 C 148.820312 154.820312 148.652344 154.757812 148.558594 154.632812 C 148.46875 154.507812 148.429688 154.355469 148.4375 154.179688 L 148.5 153.21875 C 148.144531 153.75 147.738281 154.167969 147.285156 154.472656 C 146.832031 154.78125 146.328125 154.933594 145.78125 154.933594 C 145.472656 154.933594 145.183594 154.878906 144.910156 154.765625 C 144.636719 154.65625 144.402344 154.484375 144.203125 154.253906 C 144 154.027344 143.84375 153.742188 143.730469 153.402344 C 143.617188 153.058594 143.558594 152.65625 143.558594 152.195312 C 143.558594 151.742188 143.621094 151.304688 143.738281 150.882812 C 143.855469 150.457031 144.027344 150.058594 144.253906 149.683594 C 144.472656 149.304688 144.742188 148.964844 145.058594 148.652344 C 145.375 148.34375 145.726562 148.078125 146.117188 147.855469 C 146.507812 147.632812 146.929688 147.460938 147.382812 147.335938 C 147.835938 147.210938 148.316406 147.148438 148.820312 147.148438 C 149.183594 147.148438 149.546875 147.171875 149.914062 147.222656 C 150.28125 147.273438 150.640625 147.363281 150.996094 147.492188 Z M 146.527344 153.359375 C 146.757812 153.359375 146.976562 153.285156 147.191406 153.136719 C 147.40625 152.992188 147.613281 152.789062 147.804688 152.53125 C 147.992188 152.277344 148.167969 151.976562 148.328125 151.632812 C 148.488281 151.289062 148.621094 150.925781 148.734375 150.53125 L 148.976562 148.527344 C 148.90625 148.519531 148.835938 148.515625 148.765625 148.511719 C 148.695312 148.511719 148.625 148.511719 148.558594 148.511719 C 148.125 148.511719 147.71875 148.601562 147.339844 148.78125 C 146.964844 148.960938 146.640625 149.203125 146.367188 149.507812 C 146.09375 149.8125 145.878906 150.164062 145.71875 150.566406 C 145.5625 150.972656 145.484375 151.402344 145.484375 151.851562 C 145.484375 152.382812 145.574219 152.769531 145.761719 153.003906 C 145.945312 153.238281 146.203125 153.359375 146.527344 153.359375 Z M 146.527344 153.359375 "/>
</g>
<g clip-path="url(#clip3)" clip-rule="nonzero">
<path style=" stroke:none;fill-rule:nonzero;fill:rgb(100%,40.784314%,23.529412%);fill-opacity:1;" d="M 135.550781 107.132812 L 130.867188 107.132812 L 130.867188 71.5625 C 130.867188 70.734375 130.195312 70.066406 129.367188 70.066406 L 70.632812 70.066406 C 69.804688 70.066406 69.132812 70.734375 69.132812 71.5625 L 69.132812 107.132812 L 64.449219 107.132812 C 64.042969 107.132812 63.65625 107.292969 63.367188 107.578125 C 63.082031 107.867188 62.917969 108.253906 62.921875 108.660156 L 62.921875 110.207031 C 62.921875 110.28125 62.925781 110.355469 62.9375 110.433594 C 63.328125 113.042969 65.417969 115.957031 68.246094 116.308594 C 68.308594 116.316406 68.371094 116.320312 68.433594 116.320312 L 131.105469 116.371094 C 134.375 116.371094 136.746094 113.261719 137.070312 110.375 C 137.078125 110.320312 137.078125 110.265625 137.078125 110.207031 L 137.078125 108.660156 C 137.082031 108.253906 136.917969 107.867188 136.632812 107.578125 C 136.347656 107.292969 135.957031 107.132812 135.550781 107.132812 M 72.128906 73.0625 L 127.871094 73.0625 L 127.871094 107.128906 L 107.40625 107.128906 C 107.304688 107.128906 107.210938 107.144531 107.117188 107.160156 L 93.445312 107.160156 C 93.347656 107.140625 93.25 107.132812 93.152344 107.128906 L 72.128906 107.128906 Z M 131.109375 113.3125 L 68.546875 113.261719 C 67.460938 113.066406 66.304688 111.660156 66 110.1875 L 92.019531 110.1875 C 92.539062 111.113281 93.515625 111.734375 94.628906 111.734375 L 105.925781 111.734375 C 107.039062 111.734375 108.015625 111.113281 108.535156 110.1875 L 134.011719 110.1875 C 133.769531 111.695312 132.523438 113.3125 131.109375 113.3125 M 91.722656 83.941406 C 91.121094 83.335938 90.140625 83.335938 89.539062 83.941406 L 83.09375 90.382812 C 82.492188 90.988281 82.492188 91.964844 83.09375 92.570312 L 89.539062 99.011719 C 89.828125 99.304688 90.222656 99.464844 90.632812 99.464844 C 91.042969 99.464844 91.433594 99.304688 91.722656 99.011719 C 92.328125 98.410156 92.328125 97.429688 91.722656 96.828125 L 86.375 91.476562 L 91.722656 86.125 C 92.328125 85.519531 92.328125 84.542969 91.722656 83.941406 M 106.941406 99.011719 C 107.230469 99.304688 107.625 99.464844 108.035156 99.464844 C 108.445312 99.464844 108.839844 99.304688 109.128906 99.011719 L 115.570312 92.570312 C 116.175781 91.964844 116.175781 90.988281 115.570312 90.382812 L 109.128906 83.941406 C 108.523438 83.335938 107.546875 83.335938 106.941406 83.941406 C 106.339844 84.542969 106.339844 85.523438 106.941406 86.125 L 112.292969 91.476562 L 106.941406 96.828125 C 106.339844 97.429688 106.339844 98.410156 106.941406 99.011719 M 93.914062 102.3125 C 94.675781 102.695312 95.605469 102.386719 95.988281 101.621094 L 105.261719 83.074219 C 105.445312 82.707031 105.476562 82.285156 105.347656 81.894531 C 105.214844 81.503906 104.9375 81.183594 104.570312 81 C 103.808594 80.621094 102.878906 80.929688 102.496094 81.691406 L 93.222656 100.242188 C 92.839844 101.003906 93.148438 101.933594 93.914062 102.3125 "/>
</g>
</g>
</svg>
